<svg xmlns="http://www.w3.org/2000/svg" fill="none" viewBox="0 0 32 32" id="Medal">
  <g filter="url(#filter0_i_18_1461)" fill="#000000" class="color000000 svgShape">
    <path fill="url(#paint0_radial_18_1461)" d="M17.3749 11.6602C17.1749 11.6402 16.9749 11.6202 16.7749 11.5802C15.5349 11.3602 14.3749 10.8002 13.4349 9.94016C10.6949 7.83016 7.42488 5.17016 5.75488 2.16016H5.40487C3.95487 2.16016 3.04488 3.72016 3.75488 4.98016C5.07488 7.31016 6.93488 9.29015 9.17488 10.7502C9.93488 11.3402 13.7206 13.6189 14.6806 13.6189L17.3749 11.6602Z"></path>
    <path fill="url(#paint1_radial_18_1461)" d="M17.3749 11.6602C17.1749 11.6402 16.9749 11.6202 16.7749 11.5802C15.5349 11.3602 14.3749 10.8002 13.4349 9.94016C10.6949 7.83016 7.42488 5.17016 5.75488 2.16016H5.40487C3.95487 2.16016 3.04488 3.72016 3.75488 4.98016C5.07488 7.31016 6.93488 9.29015 9.17488 10.7502C9.93488 11.3402 13.7206 13.6189 14.6806 13.6189L17.3749 11.6602Z"></path>
  </g>
  <path fill="url(#paint2_linear_18_1461)" d="M16.2048 7.37014L16.381 8.60871L14.8175 9.80427L9.797 2.15015H11.9748C12.6448 2.15015 13.2648 2.50014 13.5948 3.08014L16.2048 7.37014Z"></path>
  <path fill="url(#paint3_linear_18_1461)" d="M19.2819 8.65603L17.6116 11.6702H20.2549C21.2249 11.6702 19.4949 12.8964 20.2549 12.3064C22.7118 11.2751 27.0249 7.32016 28.3349 4.99016C29.0549 3.72016 28.1349 2.16016 26.6949 2.16016H26.3449C24.1525 4.44949 21.62 6.74536 19.2819 8.65603Z"></path>
  <path fill="url(#paint4_linear_18_1461)" d="M16.0148 11.6289C15.9182 11.6408 15.8215 11.6505 15.7249 11.6602L15.5249 11.9002L15.7348 11.5729C14.5099 11.3481 13.3647 10.7909 12.4348 9.94016C9.69485 7.83016 7.217 5.16015 5.547 2.15015H9.93484L16.0148 11.6289Z"></path>
  <path fill="url(#paint5_linear_18_1461)" d="M16.0148 11.6289C15.9182 11.6408 15.8215 11.6505 15.7249 11.6602L15.5249 11.9002L15.7348 11.5729C14.5099 11.3481 13.3647 10.7909 12.4348 9.94016C9.69485 7.83016 7.217 5.16015 5.547 2.15015H9.93484L16.0148 11.6289Z"></path>
  <path fill="url(#paint6_linear_18_1461)" d="M16.6088 10.211L16.7894 11.4809C17.8536 11.2143 18.8433 10.6918 19.6649 9.94016C22.4049 7.83016 24.6749 5.17016 26.3449 2.16016H21.7749L16.6088 10.211Z"></path>
  <path fill="url(#paint7_linear_18_1461)" d="M16.6088 10.211L16.7894 11.4809C17.8536 11.2143 18.8433 10.6918 19.6649 9.94016C22.4049 7.83016 24.6749 5.17016 26.3449 2.16016H21.7749L16.6088 10.211Z"></path>
  <path fill="url(#paint8_linear_18_1461)" d="M16.421 11.6601H16.3747L16.5748 11.9002L16.421 11.6601Z"></path>
  <path fill="url(#paint9_linear_18_1461)" d="M16.421 11.6601H16.3747L16.5748 11.9002L16.421 11.6601Z"></path>
  <path fill="url(#paint10_linear_18_1461)" d="M22.1548 2.16016H20.1148C19.4448 2.16016 18.8348 2.51016 18.4948 3.09016L13.2748 11.6702H16.0548L22.1548 2.16016Z"></path>
  <path fill="url(#paint11_linear_18_1461)" d="M22.1548 2.16016H20.1148C19.4448 2.16016 18.8348 2.51016 18.4948 3.09016L13.2748 11.6702H16.0548L22.1548 2.16016Z"></path>
  <path fill="url(#paint12_linear_18_1461)" d="M16.037 30.0943C21.5819 30.0943 26.077 25.4873 26.077 19.8043C26.077 14.1213 21.5819 9.51428 16.037 9.51428C10.4921 9.51428 5.99701 14.1213 5.99701 19.8043C5.99701 25.4873 10.4921 30.0943 16.037 30.0943Z"></path>
  <path fill="url(#paint13_linear_18_1461)" d="M16.037 30.0943C21.5819 30.0943 26.077 25.4873 26.077 19.8043C26.077 14.1213 21.5819 9.51428 16.037 9.51428C10.4921 9.51428 5.99701 14.1213 5.99701 19.8043C5.99701 25.4873 10.4921 30.0943 16.037 30.0943Z"></path>
  <path fill="url(#paint14_linear_18_1461)" d="M16.037 28.2443C20.5823 28.2443 24.267 24.4655 24.267 19.8043C24.267 15.143 20.5823 11.3643 16.037 11.3643C11.4917 11.3643 7.80701 15.143 7.80701 19.8043C7.80701 24.4655 11.4917 28.2443 16.037 28.2443Z"></path>
  <path fill="url(#paint15_radial_18_1461)" d="M16.037 28.2443C20.5823 28.2443 24.267 24.4655 24.267 19.8043C24.267 15.143 20.5823 11.3643 16.037 11.3643C11.4917 11.3643 7.80701 15.143 7.80701 19.8043C7.80701 24.4655 11.4917 28.2443 16.037 28.2443Z"></path>
  <path fill="url(#paint16_radial_18_1461)" d="M16.037 28.2443C20.5823 28.2443 24.267 24.4655 24.267 19.8043C24.267 15.143 20.5823 11.3643 16.037 11.3643C11.4917 11.3643 7.80701 15.143 7.80701 19.8043C7.80701 24.4655 11.4917 28.2443 16.037 28.2443Z"></path>
  <path fill="url(#paint17_linear_18_1461)" d="M16.047 28.8543C13.687 28.8543 11.467 27.9143 9.80698 26.2043C8.13698 24.4943 7.21698 22.2243 7.21698 19.8043C7.21698 17.3843 8.13698 15.1143 9.80698 13.4043C13.247 9.87434 18.847 9.87434 22.297 13.4043C25.737 16.9343 25.737 22.6743 22.297 26.2043C20.617 27.9143 18.397 28.8543 16.047 28.8543ZM16.037 11.9843C14.087 11.9843 12.127 12.7443 10.647 14.2743C9.20698 15.7543 8.41698 17.7143 8.41698 19.8043C8.41698 21.8943 9.20698 23.8543 10.647 25.3343C12.087 26.8143 14.007 27.6243 16.037 27.6243C18.077 27.6243 19.987 26.8143 21.427 25.3343C24.397 22.2843 24.397 17.3243 21.427 14.2743C19.947 12.7443 17.997 11.9843 16.037 11.9843Z"></path>
  <g filter="url(#filter1_ii_18_1461)" fill="#000000" class="color000000 svgShape">
    <path fill="url(#paint18_linear_18_1461)" d="M16.647 15.7543L17.477 17.4743C17.577 17.6743 17.767 17.8243 17.987 17.8543L19.837 18.1343C20.387 18.2143 20.617 18.9143 20.207 19.3143L18.927 20.5943C18.737 20.7843 18.677 21.0642 18.757 21.3242L19.347 23.0343C19.547 23.6043 18.987 24.1443 18.437 23.9043L16.297 22.9443C16.127 22.8643 15.927 22.8643 15.757 22.9443L13.617 23.9043C13.077 24.1443 12.507 23.6043 12.707 23.0343L13.297 21.3242C13.387 21.0642 13.317 20.7843 13.127 20.5943L11.847 19.3143C11.447 18.9143 11.667 18.2143 12.217 18.1343L14.067 17.8543C14.287 17.8243 14.477 17.6843 14.577 17.4743L15.407 15.7543C15.677 15.2343 16.397 15.2343 16.647 15.7543Z"></path>
    <path fill="url(#paint19_radial_18_1461)" d="M16.647 15.7543L17.477 17.4743C17.577 17.6743 17.767 17.8243 17.987 17.8543L19.837 18.1343C20.387 18.2143 20.617 18.9143 20.207 19.3143L18.927 20.5943C18.737 20.7843 18.677 21.0642 18.757 21.3242L19.347 23.0343C19.547 23.6043 18.987 24.1443 18.437 23.9043L16.297 22.9443C16.127 22.8643 15.927 22.8643 15.757 22.9443L13.617 23.9043C13.077 24.1443 12.507 23.6043 12.707 23.0343L13.297 21.3242C13.387 21.0642 13.317 20.7843 13.127 20.5943L11.847 19.3143C11.447 18.9143 11.667 18.2143 12.217 18.1343L14.067 17.8543C14.287 17.8243 14.477 17.6843 14.577 17.4743L15.407 15.7543C15.677 15.2343 16.397 15.2343 16.647 15.7543Z"></path>
  </g>
  <defs>
    <linearGradient id="paint2_linear_18_1461" x1="11.324" x2="16.381" y1="2.15" y2="9.804" gradientUnits="userSpaceOnUse">
      <stop stop-color="#3ff582" class="stopColorf53f56 svgShape"></stop>
      <stop offset="1" stop-color="#35ea78" class="stopColorea3586 svgShape"></stop>
    </linearGradient>
    <linearGradient id="paint3_linear_18_1461" x1="25.661" x2="25.148" y1="3.874" y2="10.387" gradientUnits="userSpaceOnUse">
      <stop stop-color="#40fd86" class="stopColorfd4058 svgShape"></stop>
      <stop offset="1" stop-color="#2ef678" class="stopColorf62e9e svgShape"></stop>
    </linearGradient>
    <linearGradient id="paint4_linear_18_1461" x1="13.307" x2="7.764" y1="2.996" y2="11.7" gradientUnits="userSpaceOnUse">
      <stop stop-color="#d4f3df" class="stopColore3d4f3 svgShape"></stop>
      <stop offset="1" stop-color="#c2f5d5" class="stopColore3c2f5 svgShape"></stop>
    </linearGradient>
    <linearGradient id="paint5_linear_18_1461" x1="13.91" x2="13.91" y1="1.811" y2="3.47" gradientUnits="userSpaceOnUse">
      <stop stop-color="#ccd9d1" class="stopColord3ccd9 svgShape"></stop>
      <stop offset="1" stop-color="#ccd9d1" stop-opacity="0" class="stopColord3ccd9 svgShape"></stop>
    </linearGradient>
    <linearGradient id="paint6_linear_18_1461" x1="23.49" x2="17.766" y1="3.005" y2="11.255" gradientUnits="userSpaceOnUse">
      <stop stop-color="#d4f3df" class="stopColore3d4f3 svgShape"></stop>
      <stop offset="1" stop-color="#c2f5d5" class="stopColore3c2f5 svgShape"></stop>
    </linearGradient>
    <linearGradient id="paint7_linear_18_1461" x1="24.042" x2="24.042" y1="1.821" y2="3.479" gradientUnits="userSpaceOnUse">
      <stop stop-color="#ccd9d1" class="stopColord3ccd9 svgShape"></stop>
      <stop offset="1" stop-color="#ccd9d1" stop-opacity="0" class="stopColord3ccd9 svgShape"></stop>
    </linearGradient>
    <linearGradient id="paint8_linear_18_1461" x1="23.49" x2="17.766" y1="3.005" y2="11.255" gradientUnits="userSpaceOnUse">
      <stop stop-color="#d4f3df" class="stopColore3d4f3 svgShape"></stop>
      <stop offset="1" stop-color="#c2f5d5" class="stopColore3c2f5 svgShape"></stop>
    </linearGradient>
    <linearGradient id="paint9_linear_18_1461" x1="24.042" x2="24.042" y1="1.821" y2="3.479" gradientUnits="userSpaceOnUse">
      <stop stop-color="#ccd9d1" class="stopColord3ccd9 svgShape"></stop>
      <stop offset="1" stop-color="#ccd9d1" stop-opacity="0" class="stopColord3ccd9 svgShape"></stop>
    </linearGradient>
    <linearGradient id="paint10_linear_18_1461" x1="20.93" x2="16.305" y1="2.713" y2="10.838" gradientUnits="userSpaceOnUse">
      <stop stop-color="#3ef481" class="stopColor3ea0f4 svgShape"></stop>
      <stop offset="1" stop-color="#43e07d" class="stopColor437ee0 svgShape"></stop>
    </linearGradient>
    <linearGradient id="paint11_linear_18_1461" x1="15.093" x2="16.047" y1="7.318" y2="7.954" gradientUnits="userSpaceOnUse">
      <stop stop-color="#65c087" class="stopColor6c65c0 svgShape"></stop>
      <stop offset="1" stop-color="#65c087" stop-opacity="0" class="stopColor6c65c0 svgShape"></stop>
    </linearGradient>
    <linearGradient id="paint12_linear_18_1461" x1="21.404" x2="13.341" y1="16.157" y2="29.782" gradientUnits="userSpaceOnUse">
      <stop stop-color="#54f48f" class="stopColorf4c654 svgShape"></stop>
      <stop offset="1" stop-color="#29dc6b" class="stopColordc9729 svgShape"></stop>
    </linearGradient>
    <linearGradient id="paint13_linear_18_1461" x1="12.529" x2="14.904" y1="30.594" y2="17.157" gradientUnits="userSpaceOnUse">
      <stop stop-color="#47fa89" class="stopColorfa8547 svgShape"></stop>
      <stop offset="1" stop-color="#47fa89" stop-opacity="0" class="stopColorfa8547 svgShape"></stop>
    </linearGradient>
    <linearGradient id="paint14_linear_18_1461" x1="12.232" x2="24.509" y1="18.734" y2="18.734" gradientUnits="userSpaceOnUse">
      <stop stop-color="#45fa88" class="stopColorfaa945 svgShape"></stop>
      <stop offset="1" stop-color="#36ec79" class="stopColorec9936 svgShape"></stop>
    </linearGradient>
    <linearGradient id="paint17_linear_18_1461" x1="24.092" x2="16.047" y1="18.224" y2="18.224" gradientUnits="userSpaceOnUse">
      <stop stop-color="#42f985" class="stopColorf9a842 svgShape"></stop>
      <stop offset="1" stop-color="#42fa86" class="stopColorfaa742 svgShape"></stop>
      <stop offset="1" stop-color="#42fa86" class="stopColorfaa742 svgShape"></stop>
    </linearGradient>
    <linearGradient id="paint18_linear_18_1461" x1="15.082" x2="18.4" y1="19.075" y2="24.242" gradientUnits="userSpaceOnUse">
      <stop stop-color="#4b8661" class="stopColor864b60 svgShape"></stop>
      <stop offset="1" stop-color="#16a34a" class="stopColor5d3247 svgShape"></stop>
    </linearGradient>
    <radialGradient id="paint0_radial_18_1461" cx="0" cy="0" r="1" gradientTransform="rotate(124.323 3.672 5.69)scale(6.48778 12.8773)" gradientUnits="userSpaceOnUse">
      <stop offset=".361" stop-color="#3ff783" class="stopColor3fa0f7 svgShape"></stop>
      <stop offset="1" stop-color="#2fc265" class="stopColor2f60c2 svgShape"></stop>
    </radialGradient>
    <radialGradient id="paint1_radial_18_1461" cx="0" cy="0" r="1" gradientTransform="matrix(0 -3.22394 3.90129 0 10.734 12.268)" gradientUnits="userSpaceOnUse">
      <stop stop-color="#32bf66" class="stopColor3258bf svgShape"></stop>
      <stop offset="1" stop-color="#32bf66" stop-opacity="0" class="stopColor3258bf svgShape"></stop>
    </radialGradient>
    <radialGradient id="paint15_radial_18_1461" cx="0" cy="0" r="1" gradientTransform="matrix(-10.9797 0 0 -9.59463 19.228 19.804)" gradientUnits="userSpaceOnUse">
      <stop offset=".844" stop-color="#4df78c" stop-opacity="0" class="stopColorf7b44d svgShape"></stop>
      <stop offset="1" stop-color="#4df78c" class="stopColorf7b44d svgShape"></stop>
    </radialGradient>
    <radialGradient id="paint16_radial_18_1461" cx="0" cy="0" r="1" gradientTransform="matrix(10.3667 0 0 9.34393 13.9 19.804)" gradientUnits="userSpaceOnUse">
      <stop offset=".826" stop-color="#1fd261" stop-opacity="0" class="stopColord2801f svgShape"></stop>
      <stop offset="1" stop-color="#1fd261" class="stopColord2801f svgShape"></stop>
    </radialGradient>
    <radialGradient id="paint19_radial_18_1461" cx="0" cy="0" r="1" gradientTransform="rotate(130.746 5.327 12.672)scale(2.68113 3.65655)" gradientUnits="userSpaceOnUse">
      <stop offset=".201" stop-color="#25603b" class="stopColor602543 svgShape"></stop>
      <stop offset="1" stop-color="#25603b" stop-opacity="0" class="stopColor602543 svgShape"></stop>
    </radialGradient>
    <filter id="filter0_i_18_1461" width="14.016" height="11.609" x="3.509" y="2.01" color-interpolation-filters="sRGB" filterUnits="userSpaceOnUse">
      <feFlood flood-opacity="0" result="BackgroundImageFix"></feFlood>
      <feBlend in="SourceGraphic" in2="BackgroundImageFix" result="shape"></feBlend>
      <feColorMatrix in="SourceAlpha" result="hardAlpha" values="0 0 0 0 0 0 0 0 0 0 0 0 0 0 0 0 0 0 127 0"></feColorMatrix>
      <feOffset dx=".15" dy="-.15"></feOffset>
      <feGaussianBlur stdDeviation=".25"></feGaussianBlur>
      <feComposite in2="hardAlpha" k2="-1" k3="1" operator="arithmetic"></feComposite>
      <feColorMatrix values="0 0 0 0 0.254902 0 0 0 0 0.329412 0 0 0 0 0.729412 0 0 0 1 0"></feColorMatrix>
      <feBlend in2="shape" result="effect1_innerShadow_18_1461"></feBlend>
    </filter>
    <filter id="filter1_ii_18_1461" width="9.224" height="8.899" x="11.342" y="15.064" color-interpolation-filters="sRGB" filterUnits="userSpaceOnUse">
      <feFlood flood-opacity="0" result="BackgroundImageFix"></feFlood>
      <feBlend in="SourceGraphic" in2="BackgroundImageFix" result="shape"></feBlend>
      <feColorMatrix in="SourceAlpha" result="hardAlpha" values="0 0 0 0 0 0 0 0 0 0 0 0 0 0 0 0 0 0 127 0"></feColorMatrix>
      <feOffset dx="-.3" dy="-.3"></feOffset>
      <feGaussianBlur stdDeviation=".375"></feGaussianBlur>
      <feComposite in2="hardAlpha" k2="-1" k3="1" operator="arithmetic"></feComposite>
      <feColorMatrix values="0 0 0 0 0.290196 0 0 0 0 0.14902 0 0 0 0 0.14902 0 0 0 1 0"></feColorMatrix>
      <feBlend in2="shape" result="effect1_innerShadow_18_1461"></feBlend>
      <feColorMatrix in="SourceAlpha" result="hardAlpha" values="0 0 0 0 0 0 0 0 0 0 0 0 0 0 0 0 0 0 127 0"></feColorMatrix>
      <feOffset dx=".2" dy="-.2"></feOffset>
      <feGaussianBlur stdDeviation=".075"></feGaussianBlur>
      <feComposite in2="hardAlpha" k2="-1" k3="1" operator="arithmetic"></feComposite>
      <feColorMatrix values="0 0 0 0 0.517647 0 0 0 0 0.372549 0 0 0 0 0.34902 0 0 0 1 0"></feColorMatrix>
      <feBlend in2="effect1_innerShadow_18_1461" result="effect2_innerShadow_18_1461"></feBlend>
    </filter>
  </defs>
</svg>
